<mxfile host="draw.kodocloud.cc" agent="Mozilla/5.0 (Windows NT 10.0; Win64; x64) AppleWebKit/537.36 (KHTML, like Gecko) Chrome/131.0.0.0 Safari/537.36" version="24.7.17">
  <diagram name="Page-1" id="u8qvRB9LhwbFXF13lbYc">
    <mxGraphModel dx="1434" dy="738" grid="1" gridSize="10" guides="1" tooltips="1" connect="1" arrows="1" fold="1" page="1" pageScale="1" pageWidth="827" pageHeight="1169" math="0" shadow="0">
      <root>
        <mxCell id="0" />
        <mxCell id="1" parent="0" />
        <mxCell id="bs2BpJccVY69jtbLsJaJ-9" style="edgeStyle=orthogonalEdgeStyle;rounded=0;orthogonalLoop=1;jettySize=auto;html=1;exitX=1;exitY=0.5;exitDx=0;exitDy=0;entryX=0;entryY=0.5;entryDx=0;entryDy=0;" edge="1" parent="1" source="bs2BpJccVY69jtbLsJaJ-2" target="bs2BpJccVY69jtbLsJaJ-4">
          <mxGeometry relative="1" as="geometry" />
        </mxCell>
        <mxCell id="bs2BpJccVY69jtbLsJaJ-2" value="&lt;font face=&quot;Verdana&quot;&gt;Źródła danych&lt;/font&gt;" style="rounded=1;whiteSpace=wrap;html=1;gradientColor=none;" vertex="1" parent="1">
          <mxGeometry x="10" y="280" width="120" height="60" as="geometry" />
        </mxCell>
        <mxCell id="bs2BpJccVY69jtbLsJaJ-10" style="edgeStyle=orthogonalEdgeStyle;rounded=0;orthogonalLoop=1;jettySize=auto;html=1;exitX=1;exitY=0.5;exitDx=0;exitDy=0;entryX=0;entryY=0.5;entryDx=0;entryDy=0;" edge="1" parent="1" source="bs2BpJccVY69jtbLsJaJ-4" target="bs2BpJccVY69jtbLsJaJ-5">
          <mxGeometry relative="1" as="geometry" />
        </mxCell>
        <mxCell id="bs2BpJccVY69jtbLsJaJ-4" value="&lt;font face=&quot;Verdana&quot;&gt;SQL&lt;/font&gt;" style="rounded=1;whiteSpace=wrap;html=1;gradientColor=none;" vertex="1" parent="1">
          <mxGeometry x="160" y="280" width="120" height="60" as="geometry" />
        </mxCell>
        <mxCell id="bs2BpJccVY69jtbLsJaJ-11" style="edgeStyle=orthogonalEdgeStyle;rounded=0;orthogonalLoop=1;jettySize=auto;html=1;exitX=1;exitY=0.5;exitDx=0;exitDy=0;entryX=0;entryY=0.5;entryDx=0;entryDy=0;" edge="1" parent="1" source="bs2BpJccVY69jtbLsJaJ-5" target="bs2BpJccVY69jtbLsJaJ-6">
          <mxGeometry relative="1" as="geometry" />
        </mxCell>
        <mxCell id="bs2BpJccVY69jtbLsJaJ-5" value="&lt;font face=&quot;Verdana&quot;&gt;Model Danych&lt;/font&gt;" style="rounded=1;whiteSpace=wrap;html=1;gradientColor=none;" vertex="1" parent="1">
          <mxGeometry x="310" y="280" width="120" height="60" as="geometry" />
        </mxCell>
        <mxCell id="bs2BpJccVY69jtbLsJaJ-12" style="edgeStyle=orthogonalEdgeStyle;rounded=0;orthogonalLoop=1;jettySize=auto;html=1;exitX=1;exitY=0.5;exitDx=0;exitDy=0;entryX=0;entryY=0.5;entryDx=0;entryDy=0;" edge="1" parent="1" source="bs2BpJccVY69jtbLsJaJ-6" target="bs2BpJccVY69jtbLsJaJ-7">
          <mxGeometry relative="1" as="geometry" />
        </mxCell>
        <mxCell id="bs2BpJccVY69jtbLsJaJ-6" value="&lt;font face=&quot;Verdana&quot;&gt;Raport Power BI&lt;/font&gt;" style="rounded=1;whiteSpace=wrap;html=1;gradientColor=none;" vertex="1" parent="1">
          <mxGeometry x="460" y="280" width="120" height="60" as="geometry" />
        </mxCell>
        <mxCell id="bs2BpJccVY69jtbLsJaJ-7" value="&lt;font face=&quot;Verdana&quot;&gt;Użytkownicy końcowi&lt;/font&gt;" style="rounded=1;whiteSpace=wrap;html=1;gradientColor=none;" vertex="1" parent="1">
          <mxGeometry x="610" y="280" width="120" height="60" as="geometry" />
        </mxCell>
      </root>
    </mxGraphModel>
  </diagram>
</mxfile>
